<svg xmlns="http://www.w3.org/2000/svg" viewBox="0 0 75 96"><defs><style>.cls-1{fill:#b3b3ce;}.cls-2{fill:#33333d;}</style></defs><title>Asset 1</title><g id="Layer_2" data-name="Layer 2"><g id="Layer_1-2" data-name="Layer 1"><path class="cls-1" d="M75,20.35A9.38,9.38,0,0,0,65.65,11H9.35A9.38,9.38,0,0,0,0,20.35V29H75Z"/><rect class="cls-1" y="33" width="75" height="63"/><rect class="cls-2" x="19.76" y="41" width="10.26" height="10.26"/><rect class="cls-2" x="32.76" y="41" width="10.26" height="10.26"/><rect class="cls-2" x="45.75" y="41" width="10.26" height="10.26"/><rect class="cls-2" x="58.74" y="41" width="10.26" height="10.26"/><rect class="cls-2" x="7" y="53.76" width="10.26" height="10.26"/><rect class="cls-2" x="19.99" y="53.76" width="10.26" height="10.26"/><rect class="cls-2" x="32.98" y="53.76" width="10.26" height="10.26"/><rect class="cls-2" x="45.97" y="53.76" width="10.26" height="10.26"/><rect class="cls-2" x="58.74" y="53.76" width="10.26" height="10.26"/><rect class="cls-2" x="7" y="66.53" width="10.26" height="10.26"/><rect class="cls-2" x="19.99" y="66.53" width="10.26" height="10.26"/><rect class="cls-2" x="32.98" y="66.53" width="10.26" height="10.26"/><rect class="cls-2" x="45.97" y="66.53" width="10.26" height="10.26"/><rect class="cls-2" x="58.74" y="66.53" width="10.26" height="10.26"/><rect class="cls-2" x="7.23" y="79.29" width="10.26" height="10.26"/><rect class="cls-2" x="20.22" y="79.29" width="10.26" height="10.26"/><rect class="cls-2" x="33.21" y="79.29" width="10.26" height="10.26"/><rect class="cls-2" x="20.5" y="0.5" width="7" height="19"/><path class="cls-1" d="M27,1V19H21V1h6m1-1H20V20h8V0Z"/><rect class="cls-2" x="48.5" y="0.5" width="7" height="19"/><path class="cls-1" d="M55,1V19H49V1h6m1-1H48V20h8V0Z"/></g></g></svg>