<svg xmlns="http://www.w3.org/2000/svg" viewBox="0 0 133.52 133.44"><defs><style>.cls-1{fill:#b3b3ce;}</style></defs><title>Asset 2</title><g id="Layer_2" data-name="Layer 2"><g id="Layer_1-2" data-name="Layer 1"><path class="cls-1" d="M51,87.8a5.1,5.1,0,0,1-3.63-1.5,5.16,5.16,0,0,1-.27-7l6.13-7.18a12,12,0,1,0,8.56,11.46,12.12,12.12,0,0,0-.41-3.09l-7.05,6A5.15,5.15,0,0,1,51,87.8Z"/><path class="cls-1" d="M69.44,83.63A19.65,19.65,0,1,1,58.45,66l7.7-9A31.27,31.27,0,1,0,76.58,67.5l-9,7.73A19.55,19.55,0,0,1,69.44,83.63Z"/><path class="cls-1" d="M81.88,63a38.19,38.19,0,1,1-11.2-11.28l6.9-8.08V42.29A49.89,49.89,0,1,0,91.25,56H90Z"/><path class="cls-1" d="M108.32,28.57,105,25.2V0L81,24l.08,20.91h0L49.72,81.62a1.63,1.63,0,0,0,.09,2.21h0a1.64,1.64,0,0,0,2.22.09L88.69,52.54h20.87l24-24Z"/></g></g></svg>