<svg xmlns="http://www.w3.org/2000/svg" viewBox="0 0 137.75 203.09"><defs><style>.cls-1{fill:#e7e7e8;}.cls-1,.cls-2,.cls-3,.cls-4,.cls-5,.cls-6,.cls-7{fill-rule:evenodd;}.cls-2{fill:#33333d;}.cls-3,.cls-6,.cls-8{fill:#fff;}.cls-3,.cls-5{stroke:#231f20;}.cls-3,.cls-4,.cls-5{stroke-miterlimit:2.61;stroke-width:0.22px;}.cls-4{fill:#231f20;stroke:#2c2d2d;}.cls-7{fill:#d1d3d4;}</style></defs><title>Asset 1</title><g id="Layer_2" data-name="Layer 2"><g id="Layer_1-2" data-name="Layer 1"><path class="cls-1" d="M46.24,4.27C51.16,1,59.85,0,68.87,0S86.58,1,91.51,4.27c16.36,25.82,22.76,56.61,26.78,84.9-5.71,10-21.94,37.59-37.61,37.59H57.06c-15.67,0-31.89-27.64-37.6-37.59,4-28.29,10.41-59.08,26.78-84.9Z"/><path class="cls-2" d="M49,7c3.48-2.66,10.09-3.82,19.89-3.67,9.81-.15,16.42,1,19.89,3.67,12.14,13,22,54.47,25.73,81.53-4.11,6.83-21.15,33.2-32.68,33.2H55.94c-11.53,0-28.57-26.37-32.68-33.2C27,61.5,36.85,20,49,7Z"/><path class="cls-3" d="M68.87,59.5C82.12,49.85,114,42.18,97.59,71c-2.11-1.86-6.44-2.53-7.92-1.93,9.92,9.15,6.52,12.91-.5,21.15C87.77,85,86,82.12,81.48,79.52c7.57,9,9.47,34.13-6.49,34.13H62.76c-16,0-14.06-25.14-6.5-34.13C51.76,82.12,50,85,48.58,90.24c-7-8.24-10.42-12-.5-21.15-1.48-.6-5.81.07-7.92,1.93C23.72,42.18,55.63,49.85,68.87,59.5Z"/><path class="cls-4" d="M75.14,71.86c1-1.18,2.3.36,2.61,2.4-.41,0-.82,0-1.23,0-1.73-.13-2.14,1.89-3.06,3.09.56-1.83.48-4.1,1.68-5.49Z"/><path class="cls-4" d="M62.6,71.86c-1-1.18-2.29.36-2.6,2.4.41,0,.82,0,1.22,0,1.74-.13,2.15,1.89,3.07,3.09-.56-1.83-.48-4.1-1.69-5.49Z"/><path class="cls-5" d="M46.66,63.75c3,1.14,5.83,5.41,9.22,4.37a15.61,15.61,0,0,1,7.41-2.83c-6.34-3.39-23.44-17.62-22,1,.44-1.39,3.75-3.17,5.41-2.53Z"/><path class="cls-6" d="M46.55,58c1.52,2.61,5.3,9.47,9.27,9.08a18.19,18.19,0,0,1,7.79-1.32C58,63.18,53.52,60,46.69,58.06L46.55,58Z"/><path class="cls-5" d="M91.08,63.75c-3,1.14-5.82,5.41-9.21,4.37a15.61,15.61,0,0,0-7.41-2.83c6.34-3.39,23.43-17.62,22,1-.44-1.39-3.75-3.17-5.42-2.53Z"/><path class="cls-6" d="M91.2,58c-1.52,2.61-5.3,9.47-9.27,9.08a18.19,18.19,0,0,0-7.79-1.32c5.62-2.58,10.09-5.76,16.92-7.7L91.2,58Z"/><path class="cls-6" d="M71.37,60.41c2.3,9.8,15.19-7.94,22.73-4.69-2.79-5.84-17.35,5.19-22.73,4.69Z"/><path class="cls-6" d="M66.38,60.41c-2.3,9.8-15.19-7.94-22.73-4.69,2.79-5.84,17.35,5.19,22.73,4.69Z"/><path class="cls-6" d="M49.22,70.48h-1c-3.84,4.3-7.44,10.82-.68,14.8a48.11,48.11,0,0,1,3.78-4.11C49.75,79,43.57,81,49.22,70.48Z"/><path class="cls-6" d="M88.53,70.48h1c3.84,4.3,7.44,10.82.68,14.8a48.11,48.11,0,0,0-3.78-4.11C88,79,94.18,81,88.53,70.48Z"/><path class="cls-6" d="M80.4,79.78a13.88,13.88,0,0,1,4.8,9.8l-.89.55L83.72,90C83.93,87.57,83,84,80.4,79.78Z"/><path class="cls-6" d="M58.48,79.57c-2.21,1.36-6.95,7.28-5.11,16,.47-.22,3.18-2.5,3.71-2.62-.18-3.51-1.11-9.63,1.4-13.33Z"/><path class="cls-2" d="M50.87,99.65C63,93.38,75.09,91.64,87.2,94v1.62c-10.59-3.83-22.72-.59-35.29,4.64-.77.4-1.93,0-1-.65Z"/><path class="cls-7" d="M74.07,68.48c-2.29-.48-3.46,1.9-5.2,1.9S66,68,63.67,68.48c.06-.12.11-.24.18-.36a40.24,40.24,0,0,1,10.05,0,2.92,2.92,0,0,1,.17.36Z"/><path class="cls-8" d="M15.12,170.73v-5.81H28.45v11.91a27,27,0,0,1-6.77,3.55,23,23,0,0,1-7,1,17,17,0,0,1-8.1-1.7,11.48,11.48,0,0,1-4.86-5A16.59,16.59,0,0,1,0,166.89a16,16,0,0,1,1.89-8,12.29,12.29,0,0,1,5.52-5.14,18.09,18.09,0,0,1,7.65-1.35,21.41,21.41,0,0,1,6.92.84,9,9,0,0,1,3.81,2.6,11.51,11.51,0,0,1,2.28,4.47l-8.32,1.48A4.57,4.57,0,0,0,18,159.41a5.42,5.42,0,0,0-3.13-.84,5.69,5.69,0,0,0-4.53,2c-1.12,1.33-1.69,3.4-1.69,6.25q0,4.53,1.71,6.48a6,6,0,0,0,4.76,1.94,8.94,8.94,0,0,0,2.75-.42,14.27,14.27,0,0,0,3-1.43v-2.63Z"/><path class="cls-8" d="M32.11,170.79a10.14,10.14,0,0,1,3.12-7.63,11.7,11.7,0,0,1,8.44-3q6.09,0,9.19,3.53a11,11,0,0,1-.6,14.65c-2.06,2-4.92,3-8.57,3a12,12,0,0,1-7.89-2.48,9.94,9.94,0,0,1-3.69-8Zm7.77,0a6.09,6.09,0,0,0,1.1,4,3.47,3.47,0,0,0,2.75,1.3,3.43,3.43,0,0,0,2.75-1.28,6.23,6.23,0,0,0,1.08-4.1,6,6,0,0,0-1.08-3.91,3.37,3.37,0,0,0-2.69-1.29A3.51,3.51,0,0,0,41,166.8a6,6,0,0,0-1.11,4Z"/><path class="cls-8" d="M59.17,160.62h7.26v3.31a8,8,0,0,1,2.16-3,4.55,4.55,0,0,1,2.75-.82,8.22,8.22,0,0,1,3.76,1.07l-2.4,5.53a6.09,6.09,0,0,0-2.18-.57,2.7,2.7,0,0,0-2.36,1.25q-1.2,1.78-1.2,6.64v6.78H59.17V160.62Z"/><path class="cls-8" d="M76.7,152.92h7.76v5.28H76.7v-5.28Zm0,7.7h7.76v20.23H76.7V160.62Z"/><polygon class="cls-8" points="89.67 152.92 97.45 152.92 97.45 180.85 89.67 180.85 89.67 152.92 89.67 152.92"/><polygon class="cls-8" points="102.67 152.92 110.44 152.92 110.44 180.85 102.67 180.85 102.67 152.92 102.67 152.92"/><path class="cls-8" d="M122.46,167.17l-7.4-.78a8.24,8.24,0,0,1,1.21-3.06,6.54,6.54,0,0,1,2.27-1.93,9.18,9.18,0,0,1,2.94-.92,24.08,24.08,0,0,1,4-.33,33,33,0,0,1,5.6.39,7.23,7.23,0,0,1,3.53,1.64,5.82,5.82,0,0,1,1.57,2.42,9.09,9.09,0,0,1,.56,3v8.94a10.65,10.65,0,0,0,.19,2.23,9.84,9.84,0,0,0,.79,2.07h-7.28a7.78,7.78,0,0,1-.57-1.19,8.56,8.56,0,0,1-.27-1.29,9.83,9.83,0,0,1-3,2.1,12.56,12.56,0,0,1-4.78.84,8,8,0,0,1-5.5-1.68,5.31,5.31,0,0,1-1.88-4.13,5.37,5.37,0,0,1,1.36-3.79c.9-1,2.56-1.73,5-2.21q4.36-.88,5.66-1.23a27.77,27.77,0,0,0,2.74-.93,2.75,2.75,0,0,0-.59-2,3,3,0,0,0-2.08-.57,5.3,5.3,0,0,0-2.85.61,3.38,3.38,0,0,0-1.21,1.79Zm6.73,4.07a34,34,0,0,1-3.33,1,7.47,7.47,0,0,0-3,1.24,1.91,1.91,0,0,0-.65,1.43,1.93,1.93,0,0,0,.63,1.49,2.71,2.71,0,0,0,1.88.58,5,5,0,0,0,2.42-.62,3.91,3.91,0,0,0,1.58-1.54,5.15,5.15,0,0,0,.46-2.35v-1.25Z"/><path class="cls-8" d="M26.54,202.9v-8.79h-.05l-2.37,8.79H22.91l-2.34-8.79h-.05v8.79H19.28V192.28h2l2.27,8.43h.06l2.22-8.43h2.08V202.9Z"/><path class="cls-8" d="M39.32,202.9l-.6-2.49H35.64L35,202.9H33.66l2.67-10.62h1.79l2.61,10.62Zm-2.09-9.36h-.06l-1.35,5.8h2.72Z"/><path class="cls-8" d="M50.87,202.9l-1.8-4.74H47.84v4.74H46.52V192.28h2.75a3.57,3.57,0,0,1,1.1.16,2.43,2.43,0,0,1,.92.5,2.35,2.35,0,0,1,.61.9A3.9,3.9,0,0,1,52,196.3a3,3,0,0,1-.43.82,2.39,2.39,0,0,1-.58.53,2,2,0,0,1-.62.25l2,5Zm-.09-7.67a2.23,2.23,0,0,0-.15-.89,1.56,1.56,0,0,0-.39-.56,1.31,1.31,0,0,0-.56-.29,2.28,2.28,0,0,0-.63-.09H47.84v3.71h1.24a1.6,1.6,0,0,0,1.23-.49A2,2,0,0,0,50.78,195.23Z"/><path class="cls-8" d="M63,202.9l-3.24-5.33h0v5.33H58.4V192.28h1.32V197h0l3.06-4.72h1.56L61,197.2l3.61,5.7Z"/><path class="cls-8" d="M70.38,202.9V192.28h4.47v1.2H71.69v3.34h3V198h-3v3.73H75v1.22Z"/><path class="cls-8" d="M83.48,193.43v9.47H82.13v-9.47h-2v-1.15h5.4v1.15Z"/><path class="cls-8" d="M91.16,202.9V192.28h1.35V202.9Z"/><path class="cls-8" d="M104,202.9l-3.39-8.24h0v8.24H99.35V192.28H101l3.34,8.25h0v-8.25h1.24V202.9Z"/><path class="cls-8" d="M115.73,192a3.46,3.46,0,0,1,1.51.32,2.74,2.74,0,0,1,1.1,1l-.84.91a2.28,2.28,0,0,0-.77-.72,1.91,1.91,0,0,0-.94-.24,1.67,1.67,0,0,0-1.06.35,2.63,2.63,0,0,0-.74.94,5.08,5.08,0,0,0-.45,1.38,9.66,9.66,0,0,0-.14,1.65,8.42,8.42,0,0,0,.16,1.71,4.93,4.93,0,0,0,.46,1.36,2.6,2.6,0,0,0,.78.91,1.83,1.83,0,0,0,1.09.33,2,2,0,0,0,1.28-.36v-3.29h-1.4v-1.17h2.7v5.18a3.52,3.52,0,0,1-1.09.62,4.23,4.23,0,0,1-1.52.23,3.36,3.36,0,0,1-1.63-.39,3.74,3.74,0,0,1-1.23-1.12,5.33,5.33,0,0,1-.76-1.74,8.9,8.9,0,0,1-.26-2.27,9.06,9.06,0,0,1,.25-2.21,5.81,5.81,0,0,1,.74-1.75,3.63,3.63,0,0,1,1.17-1.17A3,3,0,0,1,115.73,192Z"/></g></g></svg>