<svg xmlns="http://www.w3.org/2000/svg" viewBox="0 0 121.36 108.3"><defs><style>.cls-1{fill:#b3b3ce;}</style></defs><title>Asset 6</title><g id="Layer_2" data-name="Layer 2"><g id="Layer_1-2" data-name="Layer 1"><path class="cls-1" d="M35.75,29.53a39.94,39.94,0,0,1,49.87,0l14.76-14.76a60.73,60.73,0,0,0-79.39,0Z"/><path class="cls-1" d="M106.77,21.16,92,35.92a39.94,39.94,0,0,1,8.48,20.41h20.87A60.56,60.56,0,0,0,106.77,21.16Z"/><path class="cls-1" d="M0,56.33H20.88a39.77,39.77,0,0,1,8.48-20.41L14.6,21.16A60.57,60.57,0,0,0,0,56.33Z"/><path class="cls-1" d="M68,62.1h0c-.18-2.47-1.23-10.87-7.36-23.64-6.12,12.77-7.17,21.17-7.35,23.64h0c0,.49,0,.75,0,.75a7.4,7.4,0,1,0,14.79,0S68.08,62.59,68,62.1Z"/><rect class="cls-1" x="81.26" y="82.2" width="14.77" height="26.1"/><rect class="cls-1" x="53.32" y="88.5" width="14.77" height="19.8"/><rect class="cls-1" x="25.38" y="98.4" width="14.77" height="9.9"/></g></g></svg>