<svg xmlns="http://www.w3.org/2000/svg" viewBox="0 0 145.86 105.87"><defs><style>.cls-1{fill:#b3b3ce;}</style></defs><title>Asset 5</title><g id="Layer_2" data-name="Layer 2"><g id="Layer_1-2" data-name="Layer 1"><path class="cls-1" d="M144.6,59.51,124.42,62l-3.22-8.15L118,45.7l16.43-12a72.48,72.48,0,0,0-20.29-21l-12.51,16-8-3.49-8-3.48L88.67,1.73a72.6,72.6,0,0,0-29.16-.48L62,21.43l-8.15,3.23L45.7,27.88l-12-16.43a72.45,72.45,0,0,0-21,20.28l16,12.51-3.49,8-3.48,8L1.73,57.18a72.61,72.61,0,0,0-.48,29.16l20.18-2.49L23,87.75a59.24,59.24,0,0,0,7.4-5.32,39.29,39.29,0,0,1-2.88-4.8c-.28-.52-.66-1.23-.82-1.47-1.33-1.65-2.47-5.87-2.47-7.31a5.09,5.09,0,0,1,1.15-3.13v-4.9l0-.17C26.32,51.3,33.7,48,39.73,48h.73a16.06,16.06,0,0,1,7.35,1.75c.42-.45.85-.9,1.3-1.34a34,34,0,0,1,10.16-6.81c3.43-4.1,8.65-5.73,13.21-5.73h.89c4.57,0,9.79,1.63,13.22,5.73a34,34,0,0,1,10.87,7.53c.2.2.39.41.58.62A16.1,16.1,0,0,1,105.4,48h.72c6,0,13.42,3.32,14.36,12.67l0,.17v4.9a5,5,0,0,1,1.16,3.13c0,1.44-1.14,5.66-2.48,7.31-.15.24-.53,1-.81,1.47a40.6,40.6,0,0,1-2.88,4.8A59.66,59.66,0,0,0,123,87.84l1-2.31,20.09,3.14A72.42,72.42,0,0,0,144.6,59.51Z"/><path class="cls-1" d="M72.93,72a5.88,5.88,0,0,1-3.8-1.4.7.7,0,0,1-.08-1,.69.69,0,0,1,1-.08,4.48,4.48,0,0,0,5.79,0,.7.7,0,1,1,.91,1.06A5.88,5.88,0,0,1,72.93,72ZM67.12,56.46a1.77,1.77,0,1,0,1.76,1.76A1.76,1.76,0,0,0,67.12,56.46ZM77,58.22a1.77,1.77,0,1,0,1.76-1.76A1.76,1.76,0,0,0,77,58.22Zm55,38.54c-.24-1.27-5.68-3.59-9.73-5.55S112,83.91,112,83.91V81.36c1.94-2.08,3.84-6.48,4.53-7.29a14.57,14.57,0,0,0,1.74-5.22c0-.92-1.16-1.73-1.16-1.73V61c-1-10.3-11.39-9.65-11.39-9.65S95.42,50.69,94.37,61v6.13s-1.15.81-1.15,1.73A14.74,14.74,0,0,0,95,74.07c.7.81,2.59,5.21,4.54,7.29v2.55S98.19,85,96.4,86.43l.86.41c7.51,3.55,10.18,5,10.62,7.42v.18l1.26,11.07,0,.3H133Zm-119.12,9h23.8l0-.3L38,94.44v-.09l0-.09c.44-2.42,3.11-3.87,10.62-7.42l.86-.41c-1.79-1.4-3.09-2.52-3.09-2.52V81.36c2-2.08,3.84-6.48,4.53-7.29a14.57,14.57,0,0,0,1.74-5.22c0-.92-1.16-1.73-1.16-1.73V61c-1-10.3-11.39-9.65-11.39-9.65S29.75,50.69,28.71,61v6.13s-1.16.81-1.16,1.73a14.74,14.74,0,0,0,1.73,5.22c.7.81,2.59,5.21,4.54,7.29v2.55s-6.16,5.33-10.21,7.3-9.5,4.28-9.73,5.55Zm93.4.06H39.6L40.85,94.8c.29-1.56,6.95-4.39,11.91-6.8,3.33-1.62,7.81-5.08,10.4-7.19l2.18-2.22V77.9l-.09.08V76C62.87,73.4,60.55,68,59.7,67s-2.12-5.25-2.12-6.38S59,58.52,59,58.52V51c1.28-12.6,13.94-11.81,13.94-11.81S85.59,38.42,86.86,51v7.5s1.42,1,1.42,2.13S87,66,86.15,67,83,73.4,80.6,76v3.11L83,81A63.34,63.34,0,0,0,93.1,88c5,2.41,11.62,5.24,11.9,6.8ZM72.93,76.94s7.67,2.13,10.48-11.67S82.53,47,82.53,47a14.18,14.18,0,0,0-13.65,1.35s-4.62-4.18-6.82,2.2,0,15.63,0,15.63C66.46,78.48,72.93,76.94,72.93,76.94Z"/></g></g></svg>