<svg xmlns="http://www.w3.org/2000/svg" viewBox="0 0 115.31 115.31"><defs><style>.cls-1{fill:#b3b3ce;}</style></defs><title>Asset 1</title><g id="Layer_2" data-name="Layer 2"><g id="Layer_1-2" data-name="Layer 1"><path class="cls-1" d="M97.54,32,93.2,25.22l6.47-7A58.07,58.07,0,0,0,79.82,4.45L75.52,13l-7.83-1.69-7.84-1.7L59.47,0A57.15,57.15,0,0,0,35.69,4.34l3,9.1L32,17.78l-6.74,4.34-7-6.47A58,58,0,0,0,4.45,35.5L13,39.8l-1.69,7.83-1.7,7.83L0,55.85A57.15,57.15,0,0,0,4.34,79.62l9.1-3,4.34,6.73,4.34,6.74-6.47,7A57.7,57.7,0,0,0,35.5,110.86l4.3-8.53,7.83,1.7,7.83,1.69.39,9.57A57.57,57.57,0,0,0,79.62,111l-3-9.1,6.73-4.34,6.74-4.34,7,6.47a57.79,57.79,0,0,0,13.75-19.85l-8.53-4.3,1.7-7.83,1.69-7.84,9.57-.38A57.58,57.58,0,0,0,111,35.69l-9.1,3ZM64.09,92.76A35.69,35.69,0,1,1,92.76,51.23,35.69,35.69,0,0,1,64.09,92.76Z"/><path class="cls-1" d="M74.87,45,73.2,42.72l-6.45,6.46,1.09,1.65A12.68,12.68,0,0,1,58.12,70.4V60.92L44.39,74.65,58.12,88.79v-9.3A21.75,21.75,0,0,0,74.87,45Z"/><path class="cls-1" d="M47.48,64.63a12.67,12.67,0,0,1,9.71-19.56v9.48L70.92,40.82,57.19,26.68V36A21.75,21.75,0,0,0,40.44,70.42l1.67,2.32,6.45-6.45Z"/></g></g></svg>