<svg xmlns="http://www.w3.org/2000/svg" viewBox="0 0 117.41 112.31"><defs><style>.cls-1{fill:#b3b3ce;}</style></defs><title>Asset 7</title><g id="Layer_2" data-name="Layer 2"><g id="Layer_1-2" data-name="Layer 1"><path class="cls-1" d="M62,90.25a34.1,34.1,0,1,1,34.1-34.1A34.13,34.13,0,0,1,62,90.25Zm0-60.68A26.59,26.59,0,1,0,88.62,56.15,26.61,26.61,0,0,0,62,29.57Z"/><path class="cls-1" d="M62,59a2.88,2.88,0,1,1,2.88-2.88A2.88,2.88,0,0,1,62,59Z"/><rect class="cls-1" x="60.16" y="31.5" width="4.01" height="6.03" rx="1.44"/><path class="cls-1" d="M59.19,59.86a1.55,1.55,0,0,1-.37,0,1.47,1.47,0,0,1-.88-.68l-.56-1a1.45,1.45,0,0,1,.53-2L71.2,48.52a1.41,1.41,0,0,1,.72-.19,1.45,1.45,0,0,1,1.25.72l.56,1a1.43,1.43,0,0,1,.15,1.09,1.47,1.47,0,0,1-.68.88L59.92,59.67A1.47,1.47,0,0,1,59.19,59.86Z"/><rect class="cls-1" x="80.65" y="54.15" width="6.03" height="4.02" rx="1.44"/><rect class="cls-1" x="60.08" y="74.84" width="4.02" height="6.03" rx="1.44"/><rect class="cls-1" x="37.38" y="54.28" width="6.03" height="4.02" rx="1.44"/><path class="cls-1" d="M63.94,61.33a1.18,1.18,0,0,1-.37,0,1.44,1.44,0,0,1-.88-.67L53.58,44.82a1.44,1.44,0,0,1,.53-2l1-.56a1.46,1.46,0,0,1,.73-.2,1.57,1.57,0,0,1,.37,0,1.46,1.46,0,0,1,.88.68L66.17,58.6a1.44,1.44,0,0,1-.53,2l-1,.57A1.45,1.45,0,0,1,63.94,61.33Z"/><polygon class="cls-1" points="14.29 38.77 21.51 52.75 0 45.88 14.29 38.77"/><polygon class="cls-1" points="71.26 103.48 79.75 90.25 84.57 112.31 71.26 103.48"/><polygon class="cls-1" points="98.82 21.8 83.11 21.05 99.81 5.86 98.82 21.8"/><path class="cls-1" d="M103.28,31.85A47.34,47.34,0,0,1,80.58,99l1.71,7.82a55.21,55.21,0,0,0,26.93-80.34Z"/><path class="cls-1" d="M20.68,32.2A47.41,47.41,0,0,1,90.87,17.62l5.91-5.37A55.26,55.26,0,0,0,13.05,29.76Z"/><path class="cls-1" d="M62.09,102.74a47,47,0,0,1-14.41-2.24A47.5,47.5,0,0,1,14.94,50.18L7.31,47.74a55.4,55.4,0,0,0,38,60.27,54.79,54.79,0,0,0,18.52,2.58Z"/></g></g></svg>