<svg xmlns="http://www.w3.org/2000/svg" viewBox="0 0 51 51"><defs><style>.cls-1{fill:#33333d;}</style></defs><title>Asset 2</title><g id="Layer_2" data-name="Layer 2"><g id="Layer_1-2" data-name="Layer 1"><path class="cls-1" d="M43.14,14.14l-1.92-3,2.86-3.11A25.57,25.57,0,0,0,35.3,2L33.4,5.74,29.94,5l-3.47-.75L26.3,0a26.11,26.11,0,0,0-5.4.4,25.36,25.36,0,0,0-5.11,1.51l1.32,4-3,1.92-3,1.92L8.05,6.92A25.57,25.57,0,0,0,2,15.7l3.77,1.9L5,21.06l-.75,3.47L0,24.7a26.11,26.11,0,0,0,.4,5.4,25.36,25.36,0,0,0,1.51,5.11l4-1.32,1.92,3,1.92,3L6.92,43A25.57,25.57,0,0,0,15.7,49l1.9-3.77,3.46.75,3.47.75L24.7,51a26.11,26.11,0,0,0,5.4-.4,25.36,25.36,0,0,0,5.11-1.51l-1.32-4,3-1.92,3-1.92L43,44.08A25.57,25.57,0,0,0,49,35.3l-3.77-1.9L46,29.94l.75-3.47L51,26.3a26.11,26.11,0,0,0-.4-5.4,25.36,25.36,0,0,0-1.51-5.11l-4,1.32ZM28.34,41A15.78,15.78,0,1,1,41,22.66,15.78,15.78,0,0,1,28.34,41Z"/><path class="cls-1" d="M33.11,19.92l-.73-1-2.86,2.85.48.73a5.6,5.6,0,0,1-4.29,8.65V26.94L19.63,33l6.08,6.26V35.16a9.62,9.62,0,0,0,7.4-15.24Z"/><path class="cls-1" d="M21,28.58a5.55,5.55,0,0,1,.73-7,5.63,5.63,0,0,1,3.56-1.62v4.19l6.08-6.07L25.29,11.8v4.11a9.61,9.61,0,0,0-7.4,15.24l.73,1,2.86-2.85Z"/></g></g></svg>