<svg xmlns="http://www.w3.org/2000/svg" viewBox="0 0 105.06 123.47"><defs><style>.cls-1{fill:#b3b3ce;}</style></defs><title>Asset 8</title><g id="Layer_2" data-name="Layer 2"><g id="Layer_1-2" data-name="Layer 1"><rect class="cls-1" y="108.57" width="20.32" height="14.21"/><rect class="cls-1" x="28.03" y="94.39" width="20.32" height="28.73"/><rect class="cls-1" x="56.06" y="76.36" width="20.32" height="47.11"/><rect class="cls-1" x="84.74" y="60.05" width="20.32" height="63.42"/><path class="cls-1" d="M82.86,24.88l-7.66,6.9,16.28,1.07h0L50.74,62.35l-33.65-.14L0,77.59v7.24l.12-.1L18.47,68.22,52,68.31l42.57-31-.61,15.29,7.67-6.9.77-19.52Z"/><path class="cls-1" d="M51.94,43.69v6.24H46V44.12a24.82,24.82,0,0,1-10.41-2.63l1.84-7.16A21.68,21.68,0,0,0,47.53,37c3.49,0,5.88-1.35,5.88-3.79s-2-3.8-6.48-5.33c-6.55-2.2-11-5.26-11-11.19,0-5.39,3.79-9.61,10.34-10.9V0h6V5.39a22.13,22.13,0,0,1,8.87,2l-1.77,6.92a20.41,20.41,0,0,0-8.82-2.08c-4,0-5.26,1.71-5.26,3.43,0,2,2.15,3.3,7.34,5.26,7.29,2.57,10.22,5.93,10.22,11.44S59,42.47,51.94,43.69Z"/></g></g></svg>